{"title":"Everest (2015) - HDTS - XviD - AC-3 -={SPARROW}=-","uid":12466432,"size":1489996298,"categoryP":"video","categoryS":"movies","magnet":"?xt=urn:btih:026d51fb3ac7ec15dbcbd7142552dda6816d4295&amp;dn=Everest+%282015%29+-+HDTS+-+XviD+-+AC-3+-%3D%7BSPARROW%7D%3D-&amp;tr=udp%3A%2F%2Ftracker.openbittorrent.com%3A80&amp;tr=udp%3A%2F%2Fopen.demonii.com%3A1337&amp;tr=udp%3A%2F%2Ftracker.coppersurfer.tk%3A6969&amp;tr=udp%3A%2F%2Fexodus.desync.com%3A6969","seeders":64,"leechers":35,"uploader":"SS132203","files":4,"time":1442857446,"description":"Everest (2015) - HDTS - XviD - AC-3 -={SPARROW}=-\n &lt;a href=&quot;\nhttp://imgsparrow.co/image/8cr&quot; rel=&quot;nofollow&quot; target=&quot;_NEW&quot;&gt;\nhttp://imgsparrow.co/image/8cr&lt;/a&gt;\n &lt;a href=&quot;\nhttp://imgsparrow.co/image/9b&quot; rel=&quot;nofollow&quot; target=&quot;_NEW&quot;&gt;\nhttp://imgsparrow.co/image/9b&lt;/a&gt;\n\nInfo : - \n\nThanks CM8 For Source!\n\nFormat                      : AVI\nFormat/Info                 : Audio Video Interleave\nFile size                   : 1.36 GiB\nDuration                    : 1h 49mn\nOverall bit rate            : 1 774 Kbps\n\nVideo\nID                          : 0\nFormat                      : MPEG-4 Visual\nFormat profile              : Advanced Simple@L5\nFormat settings, BVOP       : 2\nFormat settings, QPel       : No\nFormat settings, GMC        : No warppoints\nFormat settings, Matrix     : Default (H.263)\nMuxing mode                 : Packed bitstream\nCodec ID                    : XVID\nCodec ID/Hint               : XviD\nDuration                    : 1h 49mn\nBit rate                    : 1 442 Kbps\nWidth                       : 720 pixels\nHeight                      : 340 pixels\nDisplay aspect ratio        : 2.118\nFrame rate                  : 29.970 fps\nColor space                 : YUV\nChroma subsampling          : 4:2:0\nBit depth                   : 8 bits\nScan type                   : Progressive\nCompression mode            : Lossy\nBits/(Pixel*Frame)          : 0.197\nStream size                 : 1.10 GiB (81%)\nWriting library             : XviD 73\n\nAudio\nID                          : 1\nFormat                      : AC-3\nFormat/Info                 : Audio Coding 3\nMode extension              : CM (complete main)\nFormat settings, Endianness : Big\nCodec ID                    : 2000\nDuration                    : 1h 49mn\nBit rate mode               : Constant\nBit rate                    : 320 Kbps\nChannel(s)                  : 2 channels\nChannel positions           : Front: L R\nSampling rate               : 48.0 KHz\nCompression mode            : Lossy\nStream size                 : 250 MiB (18%)\nAlignment                   : Aligned on interleaves\nInterleave, duration        : 33 ms (1.00 video frame)\nInterleave, preload duratio : 512 ms\n\nScreens : -\n &lt;a href=&quot;\nhttp://imgsparrow.co/image/8cW&quot; rel=&quot;nofollow&quot; target=&quot;_NEW&quot;&gt;\nhttp://imgsparrow.co/image/8cW&lt;/a&gt; &lt;a href=&quot;\nhttp://imgsparrow.co/image/8cX&quot; rel=&quot;nofollow&quot; target=&quot;_NEW&quot;&gt;\nhttp://imgsparrow.co/image/8cX&lt;/a&gt; &lt;a href=&quot;\nhttp://imgsparrow.co/image/8cY&quot; rel=&quot;nofollow&quot; target=&quot;_NEW&quot;&gt;\nhttp://imgsparrow.co/image/8cY&lt;/a&gt; &lt;a href=&quot;\nhttp://imgsparrow.co/image/8cc&quot; rel=&quot;nofollow&quot; target=&quot;_NEW&quot;&gt;\nhttp://imgsparrow.co/image/8cc&lt;/a&gt; &lt;a href=&quot;\nhttp://imgsparrow.co/image/8cd&quot; rel=&quot;nofollow&quot; target=&quot;_NEW&quot;&gt;\nhttp://imgsparrow.co/image/8cd&lt;/a&gt; &lt;a href=&quot;\nhttp://imgsparrow.co/image/8co&quot; rel=&quot;nofollow&quot; target=&quot;_NEW&quot;&gt;\nhttp://imgsparrow.co/image/8co&lt;/a&gt; &lt;a href=&quot;\nhttp://imgsparrow.co/image/8cM&quot; rel=&quot;nofollow&quot; target=&quot;_NEW&quot;&gt;\nhttp://imgsparrow.co/image/8cM&lt;/a&gt; &lt;a href=&quot;\nhttp://imgsparrow.co/image/8cm&quot; rel=&quot;nofollow&quot; target=&quot;_NEW&quot;&gt;\nhttp://imgsparrow.co/image/8cm&lt;/a&gt; &lt;a href=&quot;\nhttp://imgsparrow.co/image/8cF&quot; rel=&quot;nofollow&quot; target=&quot;_NEW&quot;&gt;\nhttp://imgsparrow.co/image/8cF&lt;/a&gt;\n &lt;a href=&quot;\nhttp://imgsparrow.co/image/8nG&quot; rel=&quot;nofollow&quot; target=&quot;_NEW&quot;&gt;\nhttp://imgsparrow.co/image/8nG&lt;/a&gt;","torrent":{"xt":"urn:btih:026d51fb3ac7ec15dbcbd7142552dda6816d4295","amp;dn":"Everest+%282015%29+-+HDTS+-+XviD+-+AC-3+-%3D%7BSPARROW%7D%3D-","amp;tr":["udp%3A%2F%2Ftracker.openbittorrent.com%3A80","udp%3A%2F%2Fopen.demonii.com%3A1337","udp%3A%2F%2Ftracker.coppersurfer.tk%3A6969","udp%3A%2F%2Fexodus.desync.com%3A6969"],"infoHash":"026d51fb3ac7ec15dbcbd7142552dda6816d4295","infoHashBuffer":{"type":"Buffer","data":[2,109,81,251,58,199,236,21,219,203,215,20,37,82,221,166,129,109,66,149]},"announce":[],"urlList":[]}}